<svg width="38" height="50" viewBox="0 0 38 50" fill="none" xmlns="http://www.w3.org/2000/svg">
<path d="M23.2782 29.999H16.8208V38.6436H23.2782V29.999Z" fill="#0A7BBD"/>
<path d="M9.8427 10.6268C9.42609 10.6268 9.21779 10.6268 8.90533 10.6268C8.48873 10.6268 8.17627 10.4185 8.17627 10.0019C8.17627 9.58526 8.48873 9.37695 8.90533 9.37695C9.63439 9.37695 10.4676 9.37695 11.1967 9.37695C17.4458 9.37695 23.6949 9.37695 29.944 9.37695C30.0481 9.37695 30.1523 9.37695 30.2564 9.37695C30.6731 9.37695 30.9855 9.58526 30.8814 10.0019C30.8814 10.2102 30.5689 10.5226 30.2564 10.5226C29.944 10.6268 29.6315 10.5226 29.3191 10.5226C29.3191 10.8351 29.3191 11.1475 29.3191 11.3558C29.3191 22.7084 29.3191 26.6661 29.3191 38.1228C29.3191 39.1644 29.1108 39.581 27.861 39.581C22.4451 39.4768 16.925 39.581 11.5091 39.581C10.1552 39.581 9.8427 39.1644 9.8427 37.8104C9.8427 26.562 9.8427 22.7084 9.8427 11.3558C9.8427 11.2517 9.8427 11.0434 9.8427 10.6268ZM11.0925 10.7309C11.0925 22.5001 11.0925 26.7703 11.0925 38.4353C16.8209 38.4353 22.4451 38.4353 28.1734 38.4353C28.1734 26.6662 28.1734 22.5001 28.1734 10.7309C22.4451 10.7309 16.7167 10.7309 11.0925 10.7309Z" fill="#62637C"/>
<path d="M22.2369 31.2488C20.3621 31.2488 18.5915 31.2488 16.821 31.2488C16.821 31.4571 16.821 31.6655 16.821 31.8738C16.821 33.5402 16.821 36.4564 16.821 38.227C16.821 38.6436 16.7168 39.0602 16.3002 39.0602C15.7794 39.0602 15.6753 38.7478 15.6753 38.227C15.6753 36.144 15.6753 32.9153 15.6753 30.8322C15.6753 30.3115 15.8836 29.999 16.5085 29.999C18.5915 29.999 20.6746 29.999 22.8618 29.999C23.3825 29.999 23.695 30.3115 23.695 30.8322C23.695 32.9153 23.695 36.144 23.695 38.1229C23.695 38.227 23.695 38.4353 23.695 38.5395C23.5908 38.7478 23.3825 38.9561 23.1742 38.9561C22.9659 38.9561 22.7576 38.7478 22.5493 38.5395C22.4452 38.4353 22.5493 38.1229 22.5493 37.9146C22.2369 36.144 22.2369 33.1236 22.2369 31.2488Z" fill="#62637C"/>
<path d="M26.2987 16.2509C26.2987 16.8758 26.2987 17.5007 26.2987 18.2298C26.2987 18.7506 26.0904 18.9589 25.5696 18.9589C24.2157 18.9589 22.8617 18.9589 21.6119 18.9589C21.0911 18.9589 20.8828 18.6464 20.8828 18.2298C20.8828 16.8758 20.8828 15.626 20.8828 14.272C20.8828 13.7513 21.0911 13.543 21.6119 13.543C22.9658 13.543 24.2157 13.543 25.5696 13.543C26.0904 13.543 26.2987 13.8554 26.2987 14.3762C26.2987 15.0011 26.2987 15.626 26.2987 16.2509ZM25.0489 17.709C25.0489 16.6675 25.0489 15.7302 25.0489 14.7928C24.0074 14.7928 23.07 14.7928 22.1326 14.7928C22.1326 15.8343 22.1326 16.7717 22.1326 17.709C23.07 17.709 24.1115 17.709 25.0489 17.709Z" fill="#62637C"/>
<path d="M23.5908 26.1454C22.9658 26.1454 22.3409 26.1454 21.6119 26.1454C21.0911 26.1454 20.8828 25.9371 20.8828 25.4163C20.8828 24.0623 20.8828 22.8125 20.8828 21.4586C20.8828 21.0419 21.0911 20.7295 21.6119 20.7295C22.9658 20.7295 24.3198 20.7295 25.5696 20.7295C26.0904 20.7295 26.2987 21.0419 26.2987 21.4586C26.2987 22.7084 26.2987 23.9582 26.2987 25.208C26.2987 25.9371 26.1946 26.0412 25.3613 26.1454C24.8406 26.1454 24.2157 26.1454 23.5908 26.1454ZM25.0489 21.9793C24.0074 21.9793 23.07 21.9793 22.1326 21.9793C22.1326 23.0208 22.1326 23.9582 22.1326 24.8956C23.1742 24.8956 24.1115 24.8956 25.0489 24.8956C25.0489 23.9582 25.0489 23.0208 25.0489 21.9793Z" fill="#62637C"/>
<path d="M15.5712 13.543C16.1961 13.543 16.821 13.543 17.5501 13.543C18.0709 13.543 18.2792 13.7513 18.2792 14.272C18.2792 15.5219 18.2792 16.8758 18.2792 18.1256C18.2792 18.6464 18.0709 18.9589 17.5501 18.9589C16.3003 18.9589 14.9463 18.9589 13.6965 18.9589C13.1757 18.9589 12.8633 18.6464 12.8633 18.1256C12.8633 16.8758 12.8633 15.5219 12.8633 14.272C12.8633 13.7513 13.0716 13.543 13.5923 13.543C14.2173 13.543 14.9463 13.543 15.5712 13.543ZM14.009 17.709C15.0505 17.709 15.9878 17.709 17.0294 17.709C17.0294 16.6675 17.0294 15.7302 17.0294 14.7928C15.9878 14.7928 15.0505 14.7928 14.009 14.7928C14.009 15.7302 14.009 16.6675 14.009 17.709Z" fill="#62637C"/>
<path d="M18.2792 23.5414C18.2792 24.1664 18.2792 24.8954 18.2792 25.5203C18.2792 25.9369 18.0709 26.2494 17.5501 26.2494C16.1961 26.2494 14.8422 26.2494 13.5923 26.2494C13.0716 26.2494 12.8633 26.0411 12.8633 25.5203C12.8633 24.1664 12.8633 22.8124 12.8633 21.5626C12.8633 21.0418 13.0716 20.8335 13.5923 20.8335C14.9463 20.8335 16.1961 20.8335 17.5501 20.8335C18.0709 20.8335 18.2792 21.146 18.2792 21.6667C18.2792 22.1875 18.2792 22.8124 18.2792 23.5414ZM17.0294 21.9792C15.9878 21.9792 15.0505 21.9792 14.1131 21.9792C14.1131 23.0207 14.1131 23.958 14.1131 24.9996C15.1546 24.9996 16.092 24.9996 17.0294 24.9996C17.0294 23.958 17.0294 23.0207 17.0294 21.9792Z" fill="#62637C"/>
</svg>
