<svg width="36" height="38" viewBox="0 0 36 38" fill="none" xmlns="http://www.w3.org/2000/svg">
<g clip-path="url(#clip0_1_1315)">
<path d="M17.2655 9.78244L15.1981 12.3036L17.5176 14.018L18.4252 10.3875L17.2655 9.78244Z" fill="#62637C"/>
<path d="M5.9706 23.2951C7.25161 23.2951 8.29008 22.2566 8.29008 20.9756C8.29008 19.6946 7.25161 18.6561 5.9706 18.6561C4.68959 18.6561 3.65112 19.6946 3.65112 20.9756C3.65112 22.2566 4.68959 23.2951 5.9706 23.2951Z" fill="#0A7BBD"/>
<path d="M13.0803 9.78244L15.1476 12.3036L12.8282 14.018L11.9205 10.3875L13.0803 9.78244Z" fill="#62637C"/>
<path d="M34.2581 26.1692H31.0815C30.9302 26.1692 30.7789 26.0179 30.7789 25.8667C30.7789 25.8162 30.7789 25.7658 30.8293 25.7154C31.8882 24.2531 32.4933 22.4883 32.4933 20.673V20.3705C32.4933 18.757 31.1823 17.4964 29.6192 17.4964C28.9637 17.4964 28.4594 18.0006 28.4594 18.6561V19.6646C28.4594 21.1269 27.9048 22.4379 26.8963 23.4463C26.5433 23.7993 26.1904 24.0514 25.7366 24.3035L22.5095 26.1188H20.9463V24.959H10.5591C11.265 24.001 11.7188 22.7908 11.7188 21.4798C11.7188 18.3031 9.14725 15.6811 5.92015 15.6811C2.69305 15.6811 0.171875 18.3536 0.171875 21.5302C0.171875 24.7069 2.74347 27.3289 5.97057 27.3289C6.77735 27.3289 7.58412 27.1777 8.29005 26.8247V36.5564H20.9968V35.3967H22.6103L25.4845 36.5564H34.2581C35.2162 36.5564 35.9725 35.8001 35.9725 34.842C35.9725 34.3882 35.8213 33.9848 35.5187 33.6823C35.7708 33.3798 35.9725 32.9764 35.9725 32.5226C35.9725 32.0687 35.8213 31.6654 35.5187 31.3628C35.7708 31.0603 35.9725 30.6569 35.9725 30.2031C35.9725 29.7493 35.8213 29.3459 35.5187 29.0433C35.7708 28.7408 35.9725 28.3374 35.9725 27.8836C35.9725 26.9256 35.2162 26.1692 34.2581 26.1692ZM1.33161 21.5302C1.33161 18.9586 3.39898 16.8913 5.97057 16.8913C8.54217 16.8913 10.6095 18.9586 10.6095 21.5302C10.6095 22.6396 10.2061 23.648 9.60106 24.4044C9.14725 23.8497 8.54217 23.3959 7.88666 23.0934C8.49175 22.5387 8.84471 21.7824 8.84471 20.9252C8.84471 19.3116 7.5337 18.051 5.97057 18.051C4.40745 18.051 3.09644 19.362 3.09644 20.9252C3.09644 21.7824 3.49982 22.5387 4.05448 23.0934C3.39898 23.3959 2.84432 23.8497 2.34008 24.4044C1.735 23.648 1.33161 22.6396 1.33161 21.5302ZM4.20575 20.9756C4.20575 20.0175 4.9621 19.2612 5.92015 19.2612C6.8782 19.2612 7.63455 20.0175 7.63455 20.9756C7.63455 21.9336 6.8782 22.69 5.97057 22.69C5.06295 22.69 4.20575 21.9336 4.20575 20.9756ZM3.19728 25.2112C3.85279 24.354 4.86126 23.8497 5.97057 23.8497C7.07989 23.8497 8.08836 24.354 8.74386 25.2112C7.98751 25.8162 7.02947 26.1188 5.97057 26.1188C4.91168 26.1188 3.95363 25.8162 3.19728 25.2112ZM9.39937 26.1692H17.4671V35.3967H9.39937V26.1692ZM19.7866 35.3967H18.6269V26.1692H19.7866V35.3967ZM34.2581 35.3967H25.6861L22.812 34.237H20.9463V27.3289H22.8624L26.3417 25.3624C26.8459 25.0599 27.2997 24.7069 27.7031 24.3035C28.9132 23.0934 29.6192 21.4294 29.6192 19.6646V18.6561C30.5772 18.6561 31.3336 19.4125 31.3336 20.3705V20.673C31.3336 22.2362 30.8293 23.7489 29.8713 25.0095C29.6696 25.2616 29.5688 25.5641 29.5688 25.8667C29.5688 26.6734 30.2243 27.3289 31.031 27.3289H34.2077C34.5103 27.3289 34.7624 27.5811 34.7624 27.8836C34.7624 28.1861 34.5103 28.4383 34.2077 28.4383H31.3336V29.598H34.2077C34.5103 29.598 34.7624 29.8501 34.7624 30.1527C34.7624 30.4552 34.5607 30.7577 34.2581 30.7577H31.384V31.9175H34.2581C34.5607 31.9175 34.8128 32.1696 34.8128 32.4721C34.8128 32.7747 34.5607 33.0268 34.2581 33.0268H31.384V34.1865H34.2581C34.5607 34.1865 34.8128 34.4386 34.8128 34.7412C34.8128 35.1446 34.5607 35.3967 34.2581 35.3967Z" fill="#62637C"/>
<path d="M15.1981 9.17715C16.7019 9.17715 17.921 7.95808 17.921 6.45428C17.921 4.95048 16.7019 3.73141 15.1981 3.73141C13.6943 3.73141 12.4752 4.95048 12.4752 6.45428C12.4752 7.95808 13.6943 9.17715 15.1981 9.17715Z" fill="#0A7BBD"/>
<path d="M30.2747 12.4047C31.5557 12.4047 32.5942 11.3662 32.5942 10.0852C32.5942 8.80421 31.5557 7.76575 30.2747 7.76575C28.9937 7.76575 27.9552 8.80421 27.9552 10.0852C27.9552 11.3662 28.9937 12.4047 30.2747 12.4047Z" fill="#0A7BBD"/>
<path d="M30.1738 16.3368C33.4009 16.3368 35.9725 13.7652 35.9725 10.5885C35.9725 7.41181 33.4009 4.78979 30.1738 4.78979C26.9467 4.78979 24.4255 7.41181 24.4255 10.5885C24.4255 13.7652 26.9971 16.3368 30.1738 16.3368ZM27.4509 14.2694C28.1064 13.4122 29.1149 12.908 30.2242 12.908C31.3335 12.908 32.342 13.4122 32.9975 14.2694C32.2412 14.8745 31.2831 15.177 30.2242 15.177C29.1653 15.177 28.2073 14.8241 27.4509 14.2694ZM28.4594 9.98341C28.4594 9.02536 29.2158 8.26901 30.1738 8.26901C31.1319 8.26901 31.8882 9.02536 31.8882 9.98341C31.8882 10.9415 31.1319 11.6978 30.1738 11.6978C29.2158 11.6978 28.4594 10.9415 28.4594 9.98341ZM30.1738 5.94953C32.7454 5.94953 34.8128 8.0169 34.8128 10.5885C34.8128 11.6978 34.4094 12.7063 33.8043 13.4626C33.3505 12.908 32.7454 12.4542 32.0899 12.1516C32.695 11.597 33.0479 10.8406 33.0479 9.98341C33.0479 8.36986 31.7369 7.10927 30.1738 7.10927C28.5603 7.10927 27.2997 8.42028 27.2997 9.98341C27.2997 10.8406 27.7031 11.597 28.2577 12.1516C27.6022 12.4542 27.0476 12.908 26.5433 13.4626C25.8878 12.6559 25.5349 11.6474 25.5349 10.5885C25.5853 8.0169 27.6526 5.94953 30.1738 5.94953Z" fill="#62637C"/>
<path d="M15.1981 16.9424C19.6354 16.9424 23.2659 13.3119 23.2659 8.87461C23.2659 4.43734 19.6354 0.806854 15.1981 0.806854C10.7609 0.806854 7.13037 4.43734 7.13037 8.87461C7.13037 13.3119 10.7104 16.9424 15.1981 16.9424ZM15.1981 15.7826C13.2316 15.7826 11.5172 14.9758 10.2566 13.6648C10.9121 11.4966 12.9291 9.98392 15.1981 9.98392C17.4672 9.98392 19.4841 11.4966 20.1396 13.6648C18.879 14.9758 17.1142 15.7826 15.1981 15.7826ZM12.8786 6.55513C12.8786 5.29454 13.9375 4.23565 15.1981 4.23565C16.4587 4.23565 17.5176 5.29454 17.5176 6.55513C17.5176 7.81571 16.4587 8.87461 15.1981 8.87461C13.9375 8.87461 12.8786 7.81571 12.8786 6.55513ZM15.1981 1.91617C19.0303 1.91617 22.1061 5.04242 22.1061 8.82418C22.1061 10.236 21.7027 11.4966 20.9968 12.6059C20.2909 10.9924 18.9799 9.78223 17.3663 9.22757C18.1731 8.57206 18.6773 7.61402 18.6773 6.55513C18.6773 4.63904 17.1142 3.07591 15.1981 3.07591C13.282 3.07591 11.7189 4.63904 11.7189 6.55513C11.7189 7.66444 12.2231 8.62249 13.0299 9.22757C11.4164 9.83265 10.1054 11.0428 9.39943 12.6059C8.6935 11.4966 8.29011 10.236 8.29011 8.82418C8.23969 5.04242 11.3659 1.91617 15.1981 1.91617Z" fill="#62637C"/>
<path d="M12.8785 18.1017H14.0392V19.2623H12.8785V18.1017Z" fill="#62637C"/>
<path d="M15.198 18.101H24.4255V19.2608H15.198V18.101Z" fill="#62637C"/>
<path d="M12.8785 20.3701H24.4255V21.5299H12.8785V20.3701Z" fill="#62637C"/>
<path d="M12.8785 22.6898H23.2658V23.8495H12.8785V22.6898Z" fill="#62637C"/>
<path d="M10.5591 33.0769H11.7197V34.2375H10.5591V33.0769Z" fill="#62637C"/>
<path d="M12.8785 33.0769H14.0392V34.2375H12.8785V33.0769Z" fill="#62637C"/>
<path d="M15.1981 33.0769H16.3587V34.2375H15.1981V33.0769Z" fill="#62637C"/>
</g>
<defs>
<clipPath id="clip0_1_1315">
<rect width="35.8007" height="37.3134" fill="white" transform="translate(0.171875)"/>
</clipPath>
</defs>
</svg>
