<svg width="36" height="38" viewBox="0 0 36 38" fill="none" xmlns="http://www.w3.org/2000/svg">
<g clip-path="url(#clip0_1_1337)">
<path d="M10.4388 14.8242C10.3884 15.0259 10.4388 15.2276 10.5901 15.3788L14.1197 18.4042L13.0104 22.9423C12.96 23.144 13.0608 23.3457 13.2121 23.497C13.3634 23.6483 13.6155 23.6483 13.8172 23.497L17.8007 21.0263L21.7841 23.497C21.885 23.5474 21.9858 23.5979 22.0866 23.5979C22.1875 23.5979 22.2883 23.5474 22.3892 23.497C22.5405 23.3457 22.6413 23.144 22.5909 22.9423L21.4816 18.4042L25.0112 15.3788C25.1625 15.2276 25.2633 15.0259 25.1625 14.8242C25.0616 14.6225 24.9104 14.4712 24.7087 14.4712L20.1201 14.1182L18.3553 9.78183C18.2545 9.58013 18.1032 9.42886 17.8511 9.42886C17.599 9.42886 17.4477 9.58013 17.3468 9.78183L15.582 14.1182L10.9431 14.4712C10.6909 14.4712 10.5397 14.6225 10.4388 14.8242Z" fill="#0A7BBD"/>
<path d="M32.8268 19.5641C33.3815 19.5641 34.1378 19.2616 34.7933 18.6565C35.7514 17.7993 35.9027 16.3874 35.9027 16.337C35.9027 16.0345 35.701 15.7823 35.3984 15.7823C35.348 15.7823 33.9361 15.6815 32.9781 16.5387C32.8773 16.6395 32.726 16.7404 32.6251 16.8412C32.5747 15.8832 32.4739 14.9756 32.2217 14.0679C32.4739 14.0679 32.726 13.9671 33.0789 13.6646C33.4319 13.362 33.7849 12.9082 34.0874 12.3536C34.6925 11.1938 34.2387 9.8828 34.2387 9.78195C34.1378 9.47941 33.8353 9.32814 33.5832 9.42899C33.5328 9.42899 32.1713 9.8828 31.6167 11.0425C31.5662 11.1938 31.4654 11.3451 31.415 11.4459C31.0116 10.5887 30.5578 9.78195 30.0031 9.0256C30.5578 8.72306 31.0116 7.86586 31.1124 6.80697C31.2133 5.54639 30.3057 4.43707 30.3057 4.38665C30.104 4.18495 29.8014 4.13453 29.5493 4.33622C29.4989 4.38665 28.44 5.29427 28.2887 6.55485C28.2383 7.00867 28.2887 7.41205 28.3391 7.81544C27.9862 7.71459 27.5828 7.71459 27.129 7.71459C25.8684 7.76502 24.9103 8.82391 24.8599 8.87433C24.6582 9.07603 24.6582 9.42899 24.9103 9.63068C24.9608 9.68111 25.9188 10.5383 27.1794 10.5383C27.2298 10.5383 27.2802 10.5383 27.3307 10.5383C27.9358 10.4879 28.4904 10.387 28.8938 10.1349C29.0451 10.0341 29.1963 9.93323 29.2972 9.8828C29.7006 10.4879 30.104 11.1434 30.4065 11.7989C30.3057 11.7485 30.2552 11.7485 30.1544 11.698C28.9442 11.2947 27.6836 11.8997 27.6332 11.8997C27.3811 12.051 27.2802 12.3536 27.3811 12.6057C27.4315 12.6561 28.0366 13.9167 29.2468 14.3705C29.7006 14.5218 30.2048 14.6226 30.6082 14.6226C30.709 14.6226 30.7595 14.6226 30.8603 14.6226C31.062 14.6226 31.2133 14.5722 31.3645 14.5218C31.5158 15.2277 31.6167 15.984 31.6671 16.7404C31.6167 16.69 31.5158 16.5891 31.4654 16.5387C30.5073 15.6815 29.0955 15.7823 29.0451 15.7823C28.7425 15.7823 28.5408 16.0345 28.5408 16.337C28.5408 16.3874 28.6417 17.7993 29.5997 18.6565C30.0535 19.0599 30.5578 19.3624 31.0116 19.4633C31.2133 19.5137 31.3645 19.5641 31.5158 19.5641C31.3645 20.3709 31.1629 21.1777 30.9107 21.934C30.8603 21.7323 30.7595 21.5306 30.6586 21.3793C30.0031 20.1188 28.5408 19.6145 28.44 19.5641C28.1374 19.4633 27.8853 19.6145 27.7845 19.9171C27.7845 19.9675 27.2802 21.4802 27.9358 22.7408C28.2383 23.3459 28.6417 23.8501 29.0451 24.2031C29.2468 24.3543 29.4485 24.5056 29.5997 24.556C29.0955 25.3124 28.4904 26.0687 27.8349 26.7242C27.8853 26.4721 27.8853 26.22 27.8853 25.9175C27.8853 24.4048 26.6752 23.1946 26.6247 23.1442C26.423 22.9425 26.0701 22.9425 25.8684 23.1442C25.818 23.1946 24.6582 24.4048 24.6582 25.9679C24.6582 27.2789 25.0616 28.1361 25.5154 28.5899C25.0616 28.842 24.6582 29.0941 24.154 29.3463C23.9019 28.7412 23.3472 28.3378 22.6917 28.3378H18.204C17.9015 28.3378 17.6494 28.5899 17.6494 28.8924C17.6494 29.195 17.9015 29.4471 18.204 29.4471H22.6917C22.9943 29.4471 23.2464 29.6992 23.2464 30.0018V31.5145C23.2464 31.817 22.9943 32.0691 22.6917 32.0691H13.0608C12.7583 32.0691 12.5062 31.817 12.5062 31.5145V30.0018C12.5062 29.6992 12.7583 29.4471 13.0608 29.4471H15.9854C16.2879 29.4471 16.5401 29.195 16.5401 28.8924C16.5401 28.5899 16.2879 28.3378 15.9854 28.3378H13.0608C12.4053 28.3378 11.8507 28.7412 11.5986 29.2958C11.1952 29.0941 10.7918 28.842 10.3884 28.5899C10.5397 28.4386 10.7414 28.2369 10.8926 27.884C11.1447 27.3797 11.296 26.6738 11.296 25.9679C11.296 24.4552 10.1363 23.1946 10.0858 23.1442C9.88416 22.9425 9.53119 22.9425 9.3295 23.1442C9.27907 23.1946 8.06891 24.3543 8.06891 25.9175C8.06891 26.1696 8.06891 26.4721 8.11934 26.7242C7.46383 26.0687 6.85875 25.3628 6.40494 24.556C6.55621 24.5056 6.7579 24.4048 6.9596 24.2031C7.36298 23.8501 7.76637 23.3459 8.06891 22.7408C8.72442 21.4802 8.22018 19.9675 8.22018 19.9171C8.11933 19.665 7.81679 19.5137 7.56468 19.5641C7.51425 19.5641 6.00155 20.0683 5.34605 21.3793C5.2452 21.581 5.19478 21.7323 5.09393 21.934C4.79139 21.1777 4.58969 20.3709 4.48885 19.5641C5.0435 19.5641 5.74943 19.2111 6.40494 18.6565C7.36298 17.7993 7.46383 16.3874 7.46383 16.337C7.46383 16.0345 7.26214 15.7823 6.9596 15.7823C6.90917 15.7823 5.49732 15.6815 4.53927 16.5387C4.48885 16.5891 4.388 16.69 4.33758 16.7404C4.388 15.984 4.48885 15.2277 4.64012 14.5218C4.79139 14.5722 4.94266 14.6226 5.14435 14.6226C5.2452 14.6226 5.29562 14.6226 5.39647 14.6226C5.79986 14.6226 6.30409 14.5218 6.7579 14.3705C7.96806 13.9671 8.62357 12.7065 8.62357 12.6057C8.77484 12.3536 8.62357 12.051 8.37145 11.8997C8.32103 11.8493 7.06044 11.2442 5.85028 11.698C5.74943 11.7485 5.64859 11.7485 5.59816 11.7989C5.9007 11.1434 6.25367 10.4879 6.70748 9.8828C6.80833 9.98365 6.9596 10.0845 7.11087 10.1349C7.51425 10.3366 8.11934 10.4879 8.67399 10.5383C8.72442 10.5383 8.77484 10.5383 8.82526 10.5383C10.0354 10.5383 11.0439 9.68111 11.0943 9.63068C11.296 9.42899 11.3464 9.12645 11.1447 8.87433C11.0943 8.82391 10.1363 7.76502 8.87569 7.71459C8.4723 7.71459 8.01849 7.71459 7.66552 7.81544C7.71595 7.46248 7.76637 7.00867 7.71595 6.55485C7.6151 5.29427 6.50578 4.33622 6.45536 4.33622C6.25367 4.13453 5.9007 4.18495 5.69901 4.38665C5.64859 4.43707 4.74096 5.49596 4.89223 6.80697C4.94266 7.41205 5.09393 7.96671 5.34605 8.3701C5.54774 8.72306 5.79986 8.92476 6.00155 9.0256C5.44689 9.78195 4.99308 10.5887 4.58969 11.4459C4.53927 11.2947 4.48885 11.1434 4.388 11.0425C3.78292 9.8828 2.47191 9.47941 2.42149 9.42899C2.27022 9.37857 2.11894 9.37857 2.0181 9.47941C1.91725 9.52984 1.8164 9.68111 1.76598 9.78195C1.76598 9.83238 1.61471 10.2358 1.61471 10.8408C1.61471 11.1434 1.8164 11.3955 2.11894 11.3955C2.42149 11.3955 2.6736 11.1938 2.6736 10.8913C2.6736 10.8408 2.6736 10.7904 2.6736 10.74C2.97614 10.8913 3.27868 11.1938 3.48038 11.5468C3.83334 12.2527 3.83334 12.8074 3.78292 12.9586C3.68207 12.9586 3.37953 12.8074 3.02657 12.1519C2.8753 11.8997 2.57276 11.7989 2.32064 11.9502C2.06852 12.1014 1.96767 12.404 2.11894 12.6561C2.42149 13.1603 2.72403 13.5133 3.07699 13.7654C3.27868 13.9167 3.5308 13.9671 3.7325 14.0175C3.5308 14.9251 3.37953 15.8328 3.32911 16.7908C3.22826 16.69 3.12741 16.5891 2.97614 16.4883C2.0181 15.6311 0.606241 15.7319 0.505394 15.7319C0.202853 15.7319 0.00115967 15.984 0.00115967 16.2866C0.00115967 16.337 0.102007 17.7489 1.11048 18.6061C1.8164 19.2111 2.52233 19.5137 3.07699 19.5137C3.17784 19.5137 3.32911 19.5137 3.42995 19.4633C3.58122 20.4213 3.83334 21.3793 4.13588 22.287C3.93419 22.1861 3.78292 22.1357 3.58122 22.0853C2.21979 21.6315 0.807935 22.3374 0.757511 22.3374C0.505394 22.4887 0.404547 22.7912 0.505394 23.0433C0.555818 23.0937 1.26175 24.5056 2.62318 24.9594C3.12741 25.1107 3.68207 25.2115 4.13588 25.2115C4.58969 25.2115 4.99308 25.1107 5.29562 24.9594C5.34605 24.909 5.39647 24.909 5.44689 24.8586C6.00155 25.7662 6.70748 26.6738 7.46383 27.4302C7.21171 27.4302 7.01002 27.4302 6.70748 27.4806C5.19478 27.6823 4.13588 28.9933 4.08546 29.0437C3.88377 29.2958 3.93419 29.5984 4.18631 29.8001C4.23673 29.8505 5.34605 30.7077 6.70748 30.7077C6.85875 30.7077 6.9596 30.7077 7.11087 30.7077C7.81679 30.6068 8.4723 30.4051 8.97653 30.1026C9.37992 29.8505 9.63204 29.5479 9.73289 29.3463C10.338 29.7496 10.943 30.1026 11.5986 30.4051V31.464C11.5986 32.3212 12.3045 33.0776 13.2121 33.0776H22.7421C23.5993 33.0776 24.3557 32.3717 24.3557 31.464V30.4556C25.0616 30.153 25.7171 29.7496 26.3726 29.3463C26.4735 29.5984 26.7256 29.8505 27.129 30.1026C27.6332 30.4051 28.2887 30.6068 28.9946 30.7077C29.1459 30.7077 29.2468 30.7077 29.398 30.7077C30.7595 30.7077 31.8688 29.8505 31.9192 29.8001C32.1713 29.5984 32.1713 29.2958 32.0201 29.0437C31.8184 29.0437 30.7595 27.7327 29.2468 27.531C28.9946 27.4806 28.7425 27.4806 28.4904 27.4806C29.2468 26.7242 29.9527 25.8166 30.5073 24.909C30.5578 24.9594 30.6082 25.0098 30.6586 25.0098C30.9612 25.1611 31.3645 25.262 31.8184 25.262C32.2722 25.262 32.7764 25.1611 33.3311 25.0098C34.6925 24.556 35.3984 23.1442 35.4488 23.0937C35.6001 22.8416 35.4488 22.5391 35.1967 22.3878C35.1463 22.3374 33.7344 21.6819 32.373 22.1357C32.1713 22.1861 31.9696 22.287 31.8184 22.3374C32.1713 21.4298 32.373 20.5222 32.5243 19.5137C32.5747 19.5641 32.6756 19.5641 32.8268 19.5641ZM32.5243 11.5972C32.726 11.2442 33.0285 10.9417 33.3311 10.7904C33.3815 11.1434 33.3311 11.5468 33.1294 11.8997C32.7764 12.6057 32.373 12.9082 32.1713 13.0091C32.1209 12.8074 32.1713 12.3031 32.5243 11.5972ZM29.4989 13.4124C29.0955 13.2612 28.7929 13.0091 28.5913 12.7065C28.9442 12.6561 29.3476 12.6057 29.751 12.7065C30.5073 12.9586 30.8603 13.3116 30.9612 13.5133C30.7595 13.6141 30.2552 13.6646 29.4989 13.4124ZM28.7425 22.3374C28.4904 21.8836 28.4904 21.3289 28.5408 20.8751C28.8938 21.0768 29.3476 21.4298 29.5997 21.8836C30.0535 22.7912 30.0535 23.4467 29.9527 23.598C29.751 23.598 29.1963 23.245 28.7425 22.3374ZM9.68246 24.4048C9.93458 24.8081 10.2371 25.3628 10.2371 25.9679C10.2371 27.0772 9.83373 27.7831 9.63204 27.8336C9.48077 27.7831 9.07738 27.0772 9.1278 25.9679C9.1278 25.3628 9.43035 24.7577 9.68246 24.4048ZM6.25367 21.8836C6.50578 21.4298 6.9596 21.0768 7.31256 20.8751C7.36298 21.2785 7.36298 21.8332 7.11087 22.3374C6.65706 23.245 6.1024 23.598 5.95113 23.6484C5.79986 23.4467 5.74943 22.7912 6.25367 21.8836ZM6.05197 12.7569C6.45536 12.6057 6.85875 12.6561 7.21171 12.7569C7.01002 13.0091 6.70748 13.3116 6.30409 13.4629C5.54774 13.6646 5.0435 13.6141 4.84181 13.5637C4.94266 13.362 5.34605 13.0091 6.05197 12.7569ZM4.58969 24.1022C4.388 24.2031 3.73249 24.3039 2.8753 24.0014C2.37106 23.8501 1.96767 23.4467 1.71556 23.0937C2.11894 22.9929 2.6736 22.8921 3.17784 23.0937C4.08546 23.4467 4.53927 23.9509 4.58969 24.1022ZM5.14435 17.3455C5.44689 17.0934 5.85028 16.9421 6.20324 16.8917C6.1024 17.1942 5.9007 17.5976 5.59816 17.8497C4.99308 18.3539 4.48885 18.5052 4.33758 18.5052C4.388 18.3539 4.58969 17.9001 5.14435 17.3455ZM8.67399 8.82391C9.07738 8.82391 9.48077 9.0256 9.73289 9.2273C9.43034 9.37857 9.02696 9.52984 8.62357 9.52984C7.86722 9.47941 7.36298 9.2273 7.26214 9.12645C7.36298 8.97518 7.86722 8.77349 8.67399 8.82391ZM6.05197 5.64723C6.25367 5.89935 6.45536 6.30274 6.50578 6.70613C6.55621 7.46248 6.40494 7.96671 6.25367 8.11798C6.1024 7.96671 5.85028 7.5129 5.79986 6.75655C5.79986 6.35316 5.9007 5.94977 6.05197 5.64723ZM1.71556 17.9001C1.41302 17.648 1.21132 17.2446 1.11048 16.9421C1.46344 16.9925 1.86683 17.0934 2.16937 17.3959C2.77445 17.9001 2.97614 18.4044 2.97614 18.5556C2.82487 18.5556 2.27022 18.4044 1.71556 17.9001ZM6.85875 29.6992C6.25367 29.8001 5.64859 29.5479 5.2452 29.3463C5.59816 29.0437 6.1024 28.6908 6.70748 28.5899C7.81679 28.4386 8.57315 28.7412 8.62357 28.8924C8.62357 29.0437 7.96806 29.5479 6.85875 29.6992ZM32.6756 23.0937C33.1798 22.9425 33.7344 22.9929 34.1378 23.0937C33.8857 23.3963 33.4823 23.7997 32.9781 24.0014C32.0705 24.3039 31.415 24.2031 31.2637 24.1022C31.2637 23.9509 31.7175 23.4467 32.6756 23.0937ZM33.6336 17.3455C33.9361 17.0934 34.3395 16.9421 34.6925 16.8917C34.5916 17.1942 34.3899 17.5976 34.0874 17.8497C33.4823 18.3539 32.9781 18.5052 32.7764 18.5052C32.8268 18.3539 33.0285 17.8497 33.6336 17.3455ZM29.2972 6.70613C29.3476 6.30274 29.5493 5.89935 29.751 5.64723C29.9023 5.94977 30.0535 6.35316 30.0031 6.75655C29.9527 7.5129 29.6501 8.01713 29.5493 8.11798C29.398 7.96671 29.1963 7.5129 29.2972 6.70613ZM27.1794 9.52984C26.776 9.52984 26.3726 9.37857 26.0701 9.2273C26.3726 9.0256 26.7256 8.82391 27.129 8.82391C27.8853 8.77349 28.3896 8.97518 28.5408 9.07603C28.44 9.2273 27.9862 9.47941 27.1794 9.52984ZM30.1544 17.9001C29.8518 17.648 29.6501 17.2446 29.5493 16.9421C29.9023 16.9925 30.3057 17.1438 30.6082 17.3959C31.2133 17.9001 31.415 18.4044 31.415 18.6061C31.2637 18.5556 30.7595 18.4044 30.1544 17.9001ZM26.1205 24.4048C26.3726 24.7577 26.6752 25.3628 26.6752 25.9679C26.6752 27.0772 26.3222 27.7831 26.1709 27.8336C26.0197 27.7831 25.6163 27.0772 25.5658 25.9679C25.5658 25.3628 25.8684 24.8081 26.1205 24.4048ZM29.0955 28.5899C29.7006 28.6908 30.2552 29.0437 30.5578 29.3463C30.1544 29.5479 29.5493 29.8001 28.9442 29.6992C27.8349 29.5479 27.1794 29.0941 27.129 28.8924C27.2298 28.7412 27.9862 28.4386 29.0955 28.5899Z" fill="#62637C"/>
</g>
<defs>
<clipPath id="clip0_1_1337">
<rect width="35.8007" height="37.3134" fill="white" transform="translate(0.00115967)"/>
</clipPath>
</defs>
</svg>
