<svg width="26" height="35" viewBox="0 0 26 35" fill="none" xmlns="http://www.w3.org/2000/svg">
<g clip-path="url(#clip0_57_644)">
<path d="M16.9997 11.0482C18.0183 11.0482 18.8441 10.2224 18.8441 9.20379C18.8441 8.18515 18.0183 7.35938 16.9997 7.35938C15.981 7.35938 15.1553 8.18515 15.1553 9.20379C15.1553 10.2224 15.981 11.0482 16.9997 11.0482Z" fill="#0A7BBD"/>
<path d="M8.7033 10.1224C9.72194 10.1224 10.5477 9.29665 10.5477 8.27801C10.5477 7.25937 9.72194 6.43359 8.7033 6.43359C7.68466 6.43359 6.85889 7.25937 6.85889 8.27801C6.85889 9.29665 7.68466 10.1224 8.7033 10.1224Z" fill="#0A7BBD"/>
<path d="M0.917418 20.2556C1.28922 19.3224 1.55166 18.3528 1.85785 17.3978C2.09843 16.6542 2.339 15.9106 2.57958 15.1597C2.82015 14.4015 3.05344 13.6288 3.3086 12.8779C3.48356 12.3749 3.64394 11.8573 3.89181 11.3907C4.38025 10.4648 5.1603 9.84518 6.12989 9.48796C6.19551 9.46609 6.2757 9.40777 6.30486 9.34215C6.36318 9.19635 6.39963 9.03597 6.44337 8.88287C6.53815 8.54023 6.59647 8.17572 6.73498 7.84767C7.20884 6.73227 8.44088 6.14177 9.63647 6.60105C10.5769 6.95827 11.1966 7.9716 11.0653 8.97035C10.9852 9.59002 10.9123 10.2097 10.8394 10.8293C10.8321 10.9168 10.8612 11.0189 10.9123 11.0918C11.4371 11.8573 11.6631 12.7175 11.6559 13.6434C11.6559 13.7308 11.6559 13.811 11.6559 13.9204C11.8308 13.9204 11.9766 13.9204 12.1151 13.9204C12.7494 13.9204 13.3763 13.9204 14.0252 13.9204C14.0324 13.811 14.0397 13.7163 14.047 13.6215C14.0762 12.6738 14.3605 11.8208 14.9437 11.0845C15.0531 10.946 15.0895 10.8221 15.0677 10.6617C15.002 10.1514 14.9583 9.64105 14.8854 9.13074C14.8271 8.72978 14.8344 8.32882 14.9802 7.95702C15.3301 7.06762 15.9789 6.5646 16.9194 6.45524C17.7723 6.35318 18.7784 6.89265 19.1137 7.70186C19.3324 8.23405 19.4855 8.79539 19.6094 9.35673C19.6823 9.67021 19.8354 9.80873 20.1052 9.94724C21.0821 10.4503 21.76 11.2303 22.1245 12.2801C22.4818 13.3153 22.7952 14.3578 23.1379 15.393C23.3639 16.0929 23.5972 16.8 23.8232 17.4999C24.071 18.2726 24.3189 19.0527 24.5595 19.8254C24.7636 20.467 24.9969 21.1012 25.1573 21.75C25.3687 22.6176 25.3395 23.507 25.0989 24.3745C24.7855 25.5045 24.2022 26.4595 23.2983 27.225C22.3505 28.0342 21.2716 28.4716 20.0468 28.5518C18.7784 28.632 17.5973 28.3112 16.5549 27.5603C15.0604 26.4887 14.2366 25.0087 14.1564 23.1498C14.1054 21.8667 14.1126 20.5836 14.1126 19.3078C14.1126 19.1037 14.047 19.0673 13.8575 19.0673C13.1722 19.0745 12.4942 19.0818 11.8089 19.0673C11.6048 19.0673 11.5684 19.1402 11.5684 19.3224C11.5684 20.241 11.5684 21.1668 11.5392 22.0854C11.5246 22.603 11.6048 23.1279 11.4371 23.6382C11.2768 24.1339 11.1747 24.6661 10.9487 25.1327C10.1978 26.6782 8.98765 27.6915 7.33277 28.1289C6.33402 28.3914 5.33527 28.3695 4.3438 28.0706C3.19195 27.7207 2.23694 27.05 1.51521 26.0731C0.844516 25.1618 0.458136 24.1485 0.399815 22.9967C0.363364 22.0416 0.560199 21.145 0.917418 20.2556ZM18.2024 9.10887C18.1368 8.84642 18.0931 8.56939 17.9837 8.32882C17.765 7.83309 17.313 7.65083 16.7881 7.80393C16.4018 7.91328 16.0664 8.38714 16.1539 8.861C16.2049 9.17448 16.2341 9.48796 16.2705 9.80143C16.2778 9.83789 16.2924 9.86705 16.3143 9.93266C16.9339 9.6046 17.5828 9.47338 18.2826 9.4588C18.2535 9.32757 18.2316 9.21822 18.2024 9.10887ZM19.7188 27.2541C22.0662 27.2541 24.02 25.2931 23.9835 22.9092C23.9471 20.4597 22.1173 18.5934 19.7188 18.5788C17.313 18.5642 15.4176 20.5763 15.4395 22.9383C15.4322 25.2712 17.3495 27.2541 19.7188 27.2541ZM15.3957 19.1329C15.3957 19.1693 15.403 19.2058 15.4103 19.3151C16.3434 18.2653 17.437 17.5801 18.7784 17.3541C20.127 17.1281 21.3955 17.3759 22.5838 18.0685C22.5911 18.0466 22.6057 18.032 22.613 18.0102C22.3797 17.2884 22.1464 16.5667 21.9131 15.8377C21.6288 14.9629 21.3445 14.0808 21.0748 13.1987C20.8706 12.5207 20.6009 11.8864 20.0396 11.4344C19.3762 10.9023 18.6107 10.6617 17.765 10.8075C16.6861 10.997 15.9279 11.6313 15.5342 12.6592C15.4103 12.9872 15.3447 13.359 15.3447 13.7163C15.3447 15.5242 15.3811 17.3322 15.3957 19.1329ZM14.0689 15.3638C14.0543 15.3128 13.9887 15.2618 13.9377 15.2326C13.8939 15.2107 13.8356 15.2253 13.7846 15.2253C13.0774 15.2253 12.3776 15.2253 11.6777 15.2253C11.6559 15.2618 11.6486 15.2691 11.6486 15.2764C11.5538 15.8013 11.5829 15.8377 12.1006 15.8377C12.6838 15.8377 13.267 15.8304 13.8429 15.8377C14.0252 15.8377 14.0981 15.7721 14.0762 15.5971C14.0689 15.5242 14.0908 15.4367 14.0689 15.3638ZM11.9839 17.7477C12.5963 17.7477 13.2159 17.7477 13.8283 17.755C13.9085 17.755 13.9814 17.755 14.0908 17.755C14.0908 17.5801 14.1054 17.427 14.0835 17.2739C14.0762 17.2228 13.9814 17.1499 13.9304 17.1499C13.2159 17.1426 12.4942 17.1426 11.7798 17.1426C11.6631 17.1426 11.6121 17.1864 11.6048 17.3103C11.5611 17.7477 11.5611 17.7477 11.9839 17.7477ZM9.70208 8.3434C9.57086 7.97889 9.11887 7.70915 8.73249 7.75289C8.29508 7.80393 7.93786 8.13927 7.86496 8.54752C7.82122 8.77352 7.75561 8.99951 7.68999 9.25467C8.39714 9.3057 9.01681 9.50983 9.65834 9.86705C9.65834 9.33486 9.89163 8.85371 9.70208 8.3434ZM10.3072 18.608C10.3217 16.8802 10.3509 15.1451 10.3509 13.4174C10.3509 11.8937 9.06784 10.6106 7.57335 10.5742C6.77872 10.5596 6.10073 10.8293 5.5321 11.347C5.15301 11.6896 4.90515 12.1416 4.74476 12.6446C4.46044 13.5486 4.16884 14.4453 3.88452 15.3493C3.63665 16.1147 3.39608 16.8802 3.14821 17.653C3.14092 17.6821 3.14092 17.7113 3.12634 17.755C5.81642 16.4574 8.18573 16.8583 10.278 19.0454C10.2926 18.8777 10.3072 18.7465 10.3072 18.608ZM1.91617 24.0537C2.47023 25.7523 4.30735 27.276 6.58918 26.9479C7.3109 26.8167 7.82851 26.6053 8.17844 26.4085C8.17844 26.4012 8.17114 26.3939 8.17114 26.3866C9.30112 25.6576 10.0156 24.6078 10.2124 23.2299C10.3582 22.1729 10.1322 21.1668 9.53441 20.2701C8.26592 18.3601 5.94035 17.8352 4.09594 18.7611C2.0401 19.7963 1.27464 22.1073 1.91617 24.0537Z" fill="#62637C"/>
</g>
<defs>
<clipPath id="clip0_57_644">
<rect width="25.5156" height="34.9929" fill="white" transform="translate(0.09375 0.00341797)"/>
</clipPath>
</defs>
</svg>
