<svg width="39" height="40" viewBox="0 0 39 40" fill="none" xmlns="http://www.w3.org/2000/svg">
<g clip-path="url(#clip0_1_376)">
<path d="M27.8989 3.88821L28.7023 2.06718L30.5233 1.47803L32.3979 2.06718L32.9335 3.56685L33.8976 4.31669L34.5403 4.53093L34.8617 5.33432H36.04L36.4685 6.13772V6.99467L35.2902 7.47671H32.1837H27.6311L26.5064 6.99467L25.6494 6.0306L26.2386 4.47737L26.9348 3.88821H27.8989Z" fill="#0A7BBD"/>
<path d="M27.899 19.5277L29.7736 21.5094L31.1126 20.5454L33.4692 22.9555L35.2902 21.2416L30.5234 16.207L27.899 19.5277Z" fill="#0A7BBD"/>
<path d="M36.8435 5.76286L37.9682 4.53099L37.4326 2.70996H36.0936L34.5404 3.29912V4.53099L34.8618 5.33438L36.8435 5.76286Z" fill="#0A7BBD"/>
<path d="M37.8609 26.0084H31.1124C30.9517 26.0084 30.791 26.062 30.6839 26.1691L27.2025 29.6505H19.4899V29.0613C19.4899 28.7935 19.3828 28.6329 19.115 28.5257L17.0262 27.5081V21.0809C17.0262 20.9203 16.9726 20.706 16.8655 20.5989L12.1523 16.4748V14.4395L13.8662 14.868C13.9197 14.868 13.9733 14.868 13.9733 14.868H18.7401C18.9008 15.1358 19.2221 15.2965 19.5435 15.3501L21.3645 28.4186L22.5964 28.2579L20.8289 15.2965C21.5788 15.0287 22.0072 14.3324 22.0072 13.5826V12.3507C22.0072 11.3331 21.2039 10.5297 20.1862 10.5297L19.5971 6.19136L18.3652 6.35204L19.0615 11.0117C19.0079 11.0653 18.9543 11.1188 18.9008 11.1724H14.8303L10.6526 9.7263C10.5455 9.61918 10.3848 9.56562 10.2777 9.40494L9.74209 9.08358V8.17307H10.3312C10.7062 8.17307 10.9204 7.90527 10.9204 7.58391V4.53101H13.3306V3.29914H10.8133C10.4919 1.63879 8.83157 0.514036 7.17122 0.888954C5.83223 1.21031 4.76104 2.44218 4.76104 3.88829V5.12017C4.76104 6.08424 5.18952 6.9412 5.99291 7.58391V8.81578H1.06542C0.690505 8.81578 0.476266 9.08358 0.476266 9.40494V18.6172C0.476266 18.9921 0.744064 19.2064 1.06542 19.2064H4.76104V19.8491C4.76104 20.6525 5.24308 21.2952 5.99291 21.563V33.9353H4.76104C4.60036 33.9353 4.43968 33.9888 4.33256 34.0959L0.636945 37.7916C0.369147 38.0594 0.369147 38.3807 0.636945 38.6485C0.744064 38.7556 0.904743 38.8092 1.06542 38.8092H37.8609C38.2358 38.8092 38.4501 38.5414 38.4501 38.22V26.5976C38.5036 26.2227 38.2358 26.0084 37.8609 26.0084ZM19.4899 12.5114C19.4899 12.1365 19.7577 11.9222 20.0791 11.9222C20.454 11.9222 20.6683 12.19 20.6683 12.5114V13.7433C20.6683 14.1182 20.4005 14.3324 20.0791 14.3324C19.7577 14.3324 19.4899 14.0646 19.4899 13.7433V12.5114ZM18.2581 29.4363V29.704H14.5625V28.4186H16.2764L18.2581 29.4363ZM14.5625 27.1867V25.9549H15.7943V27.1867H14.5625ZM14.4018 12.4578C14.4553 12.5114 14.5089 12.5114 14.5625 12.5114H18.2581V13.7433H14.0269L12.1523 13.2612C12.1523 12.6721 12.0452 12.0829 11.7774 11.5473L14.4018 12.4578ZM7.81394 2.06727C8.61733 2.06727 9.26005 2.5493 9.52785 3.29914H6.10003C6.36783 2.5493 7.01054 2.06727 7.81394 2.06727ZM5.99291 4.53101H9.68853V6.99475H7.8675C6.84986 6.99475 6.04647 6.19136 6.04647 5.17373V4.53101H5.99291ZM6.58207 19.2599C6.95698 19.2599 7.17122 18.9921 7.17122 18.6708V12.5114H8.40309V18.028H9.63497V11.8687C9.63497 11.4938 9.36717 11.2795 9.04581 11.2795H7.22478V8.17307C7.38546 8.22663 7.65326 8.22663 7.81394 8.22663H8.40309V9.4585C8.40309 9.61918 8.45665 9.83342 8.67089 9.94054L9.42073 10.4761C10.3312 11.1724 10.8668 12.2436 10.8668 13.4219V16.7962C10.8668 16.9569 10.9204 17.1711 11.0275 17.2782L15.7408 21.4023V24.7766H14.5089V23.5447C14.5089 23.384 14.4018 23.1698 14.2411 23.0627L10.7062 20.706L10.8133 19.367L9.58141 19.2599L8.67089 29.0613H7.11766V21.0809C7.11766 20.706 6.84986 20.4918 6.52851 20.4918C6.15359 20.4918 5.93935 20.224 5.93935 19.9026V19.3135H6.58207V19.2599ZM8.88513 32.7034L9.90277 33.4532L9.42073 33.9353H7.22478V32.7034H8.88513ZM7.22478 31.5251V30.2932H8.61733L8.51021 31.5251H7.22478ZM9.74209 31.7929L10.6526 22.045L13.3306 23.866V30.079L10.8133 32.5427L9.74209 31.7929ZM1.70814 10.0477H5.99291V11.2795H2.94001V12.5114H5.99291V15.5643H1.70814V10.0477ZM1.70814 18.028V16.7962H5.99291V18.028H1.70814ZM37.2717 37.6309H2.56509L5.02884 35.1671H9.68853C9.84921 35.1671 10.0099 35.1136 10.117 35.0065L14.2411 30.8824H27.4703C27.631 30.8824 27.7917 30.8288 27.8988 30.7217L31.3802 27.2403H37.2717V37.6309Z" fill="#62637C"/>
<path d="M27.0417 32.2749L26.0241 33.2925H21.3644C21.2037 33.2925 21.043 33.3461 20.9359 33.4532L19.0613 35.3814L19.9183 36.2383L21.5786 34.578H26.2383C26.399 34.578 26.5597 34.5244 26.6668 34.4173L27.8987 33.1854L27.0417 32.2749Z" fill="#62637C"/>
<path d="M38.1826 3.2992C37.4863 2.12089 36.0402 1.69241 34.8619 2.38869C34.4334 2.65648 34.0585 2.97784 33.8443 3.51344C33.7371 3.45988 33.6836 3.45988 33.5229 3.40632C33.2016 1.74597 31.6483 0.621217 29.988 0.942574C28.7561 1.21037 27.792 2.12089 27.5242 3.35276C26.1852 3.35276 25.0605 4.37039 25.0605 5.8165C25.0605 7.26261 26.0781 8.28025 27.4707 8.28025H35.4511C36.3616 8.28025 37.1114 7.58397 37.2721 6.72702C38.4504 5.97718 38.8789 4.53107 38.1826 3.2992ZM35.7189 6.83414C35.6653 6.8877 35.5582 6.94126 35.3975 6.94126H27.4707C26.7744 6.94126 26.2388 6.40566 26.2388 5.70938C26.2388 5.01311 26.7744 4.47751 27.4707 4.47751C27.5778 4.47751 27.792 4.47751 27.8991 4.53107C28.2205 4.63819 28.5954 4.47751 28.7025 4.15615C28.7025 4.10259 28.7025 4.04903 28.7025 3.88836C28.7025 2.87072 29.5059 2.06733 30.5236 2.06733C31.5412 2.06733 32.3446 2.87072 32.3446 3.88836C32.3446 4.26327 32.6124 4.47751 32.9338 4.47751C33.4693 4.47751 33.9514 4.85243 34.1121 5.38803C34.1656 5.70938 34.5405 5.92362 34.8619 5.8165C34.9155 5.8165 34.969 5.76294 35.0226 5.76294C35.3439 5.60226 35.7189 5.65582 35.8795 5.92362C36.0938 6.29854 36.0402 6.67346 35.7189 6.83414ZM36.9507 5.33447C36.5222 4.74531 35.826 4.42395 35.1297 4.53107C35.0761 4.42395 34.969 4.26327 34.8619 4.15615C34.969 3.67412 35.4511 3.2992 36.0402 3.2992C36.7365 3.2992 37.2721 3.8348 37.2721 4.53107C37.2721 4.85243 37.165 5.12023 36.9507 5.33447Z" fill="#62637C"/>
<path d="M30.9518 15.725C30.684 15.4572 30.3627 15.4572 30.0949 15.725L22.7572 23.1163L23.6142 23.9732L27.4705 20.1169L29.5057 22.1522C29.7735 22.42 30.0949 22.42 30.3627 22.1522L31.1661 21.3488L33.2013 23.384C33.4691 23.6518 33.7905 23.6518 34.0583 23.384L35.4508 21.9915L37.4861 24.0268L38.3431 23.1698L30.9518 15.725ZM33.5763 22.0451L31.541 20.0634C31.2732 19.7956 30.9518 19.7956 30.684 20.0634L29.8806 20.8667L28.2738 19.26L30.4698 17.064L34.5403 21.1345L33.5763 22.0451Z" fill="#62637C"/>
</g>
<defs>
<clipPath id="clip0_1_376">
<rect width="38.0274" height="39.6341" fill="white" transform="translate(0.476685 0.0319824)"/>
</clipPath>
</defs>
</svg>
