<svg width="37" height="50" viewBox="0 0 37 50" fill="none" xmlns="http://www.w3.org/2000/svg">
<g clip-path="url(#clip0_57_591)">
<path d="M16.3153 23.6042C11.9097 23.6042 7.50411 23.6042 3.09849 23.6042C2.39025 23.6042 2.1507 23.8541 2.1507 24.5832C2.1507 25.5622 2.16112 26.5412 2.1507 27.5203C2.14029 28.0619 2.36942 28.4368 2.83811 28.6764C3.18181 28.843 3.30679 29.1763 3.16098 29.4992C3.02558 29.8116 2.68188 29.947 2.33818 29.7908C1.47372 29.395 0.984205 28.6972 0.952959 27.7182C0.921714 26.5829 0.932129 25.4372 0.942544 24.302C0.952959 23.4375 1.49455 22.7293 2.30693 22.4481C2.46316 22.396 2.61939 22.2814 2.71312 22.146C3.47343 21.1045 4.21291 20.0526 4.97322 19.0215C6.03557 17.5738 7.45203 16.8135 9.2122 16.8031C12.4826 16.7822 15.7425 16.7926 19.0129 16.7926C19.5649 16.7926 20.0648 16.9593 20.5335 17.2717C23.0748 18.9382 25.6265 20.6046 28.1782 22.2606C28.324 22.3543 28.5324 22.3648 28.7094 22.3543C30.8237 22.3023 32.7817 22.8959 34.6148 23.9375C35.1043 24.2187 35.5314 24.6144 35.9375 25.0206C36.3125 25.3956 36.4687 25.8955 36.4583 26.4475C36.4479 27.1037 36.4375 27.7598 36.4583 28.416C36.4791 28.968 36.2292 29.3429 35.7501 29.5096C35.271 29.6762 34.771 29.8116 34.2711 29.8533C33.4275 29.9366 32.5839 29.947 31.7402 29.9783C31.2924 29.9887 31.032 29.7387 31.0424 29.3429C31.0528 28.9576 31.3028 28.7597 31.7402 28.7389C32.7088 28.6868 33.6774 28.6451 34.6461 28.5514C35.2606 28.4889 35.2606 28.4576 35.2606 27.8327C35.2606 27.4057 35.2397 26.9891 35.271 26.5621C35.2918 26.1559 35.1564 25.8226 34.8544 25.6143C34.3232 25.2394 33.792 24.8436 33.2088 24.5728C31.7715 23.9062 30.2717 23.5521 28.6782 23.5625C24.5746 23.625 20.4398 23.6042 16.3153 23.6042ZM14.024 22.3335C18.0234 22.3335 21.9916 22.3335 26.0431 22.3335C25.8765 22.219 25.7827 22.1565 25.6786 22.094C23.8143 20.8754 21.95 19.6776 20.0961 18.4487C19.6586 18.157 19.2316 18.032 18.7213 18.032C17.2735 18.0529 15.8154 18.0425 14.3677 18.0425C14.2531 18.0425 14.1386 18.0529 14.024 18.0633C14.024 19.5006 14.024 20.9171 14.024 22.3335ZM12.795 18.032C11.5556 18.032 10.3579 18.0112 9.1497 18.032C7.85822 18.0529 6.80629 18.6257 6.01474 19.6776C5.42107 20.4796 4.84824 21.292 4.26499 22.1044C4.21291 22.1773 4.18166 22.2502 4.11917 22.3439C4.20249 22.3543 4.25457 22.3648 4.29623 22.3648C7.04584 22.3648 9.80586 22.3648 12.5555 22.3752C12.7742 22.3752 12.8158 22.2814 12.8158 22.0836C12.8054 20.8233 12.8158 19.5631 12.8158 18.3133C12.8158 18.2299 12.8054 18.1466 12.795 18.032Z" fill="#62637C"/>
<path d="M7.38933 33.2071C5.33754 33.1967 3.65028 31.4573 3.66069 29.3431C3.67111 27.2288 5.3792 25.4999 7.43099 25.5207C9.49319 25.5415 11.17 27.2809 11.1492 29.3951C11.1388 31.499 9.45153 33.2175 7.38933 33.2071ZM7.38933 31.9677C8.79538 31.9781 9.94105 30.8116 9.95146 29.3743C9.96188 27.937 8.82662 26.7497 7.43099 26.7393C6.02494 26.7289 4.87927 27.8954 4.86885 29.3326C4.85844 30.7804 5.99369 31.9573 7.38933 31.9677Z" fill="#0A7BBD"/>
<path d="M30.5113 29.3533C30.5217 31.478 28.8449 33.207 26.7827 33.207C24.7205 33.207 23.0332 31.4885 23.0332 29.3742C23.0332 27.2495 24.6996 25.5206 26.7723 25.5206C28.824 25.5101 30.5009 27.2286 30.5113 29.3533ZM24.2309 29.3533C24.2309 30.8011 25.3662 31.9676 26.7723 31.9676C28.1783 31.9676 29.3136 30.8011 29.324 29.3638C29.324 27.9265 28.1783 26.7495 26.7827 26.7495C25.3662 26.7495 24.2309 27.916 24.2309 29.3533Z" fill="#0A7BBD"/>
<path d="M17.0234 28.7495C18.6065 28.7495 20.2 28.7495 21.7831 28.7495C22.1997 28.7495 22.4497 29.0099 22.4184 29.3953C22.3976 29.6973 22.1997 29.916 21.8977 29.9577C21.8248 29.9681 21.7414 29.9681 21.6581 29.9681C18.5544 29.9681 15.4403 29.9681 12.3365 29.9681C11.8366 29.9681 11.5346 29.666 11.6075 29.2599C11.67 28.937 11.8991 28.7495 12.2741 28.7495C13.8676 28.7495 15.4403 28.7495 17.0234 28.7495Z" fill="#62637C"/>
</g>
<defs>
<clipPath id="clip0_57_591">
<rect width="36.4531" height="49.9929" fill="white" transform="translate(0.484375 0.00341797)"/>
</clipPath>
</defs>
</svg>
